<svg width="122" height="75" viewBox="0 0 122 75" fill="none" xmlns="http://www.w3.org/2000/svg">
<g id="logo-mobile">
<path d="M78.9398 15.8118C73.7758 11.4093 67.2104 8.99392 60.4244 9.00002C53.6385 9.0061 47.0774 11.4333 41.9213 15.845C36.7652 20.2568 33.3524 26.3635 32.2969 33.0669L23.4064 31.6669C24.7953 22.8468 29.2858 14.8116 36.0701 9.00664C42.8545 3.20171 51.4875 0.00802597 60.4164 1.5107e-05C69.3452 -0.00799576 77.9839 3.1702 84.7787 8.96294C91.5735 14.7557 96.0784 22.7828 97.483 31.6005L88.5951 33.0164C87.5276 26.3149 84.1039 20.2143 78.9398 15.8118Z" fill="#eeeeee"/>
<path d="M32.297 41.9338C33.3527 48.6371 36.7656 54.7438 41.9218 59.1554C47.0781 63.567 53.6392 65.9941 60.4251 66C67.2111 66.0059 73.7765 63.5903 78.9404 59.1877C84.1043 54.7851 87.5278 48.6844 88.5952 41.9829L97.4832 43.3986C96.0787 52.2163 91.574 60.2436 84.7794 66.0365C77.9848 71.8294 69.3462 75.0078 60.4173 75C51.4884 74.9922 42.8553 71.7987 36.0708 65.994C29.2863 60.1892 24.7957 52.1541 23.4066 43.334L32.297 41.9338Z" fill="#eeeeee"/>
<path d="M85.116 25.4071H70.028V46.4751C70.028 46.5978 69.936 46.7358 69.752 46.8891C69.5987 47.0118 69.3687 47.0731 69.062 47.0731C68.602 47.0731 68.2953 46.9198 68.142 46.6131V25.4071H53.054V46.4291C52.9927 46.8585 52.6707 47.0731 52.088 47.0731C51.7813 47.0731 51.536 47.0118 51.352 46.8891C51.1987 46.7358 51.122 46.6131 51.122 46.5211V25.4071H36.08V49.9251L51.95 57.6071H52.318L60.598 53.6051L68.924 57.6071H69.338L85.116 49.9251V25.4071Z" fill="#eeeeee"/>
<path d="M20.55 34.5H35.55V40.5H20.55V34.5Z" fill="#eeeeee"/>
<path d="M7.5 34.5H0V40.5H7.5V34.5Z" fill="#eeeeee"/>
<path d="M113.95 34.5H121.45V40.5H113.95V34.5Z" fill="#eeeeee"/>
<path d="M100.825 34.5H85.825V40.5H100.825V34.5Z" fill="#eeeeee"/>
<path d="M8.7 18.5C8.7 17.3954 9.59543 16.5 10.7 16.5H17.2C18.3046 16.5 19.2 17.3954 19.2 18.5V56.5C19.2 57.6046 18.3046 58.5 17.2 58.5H10.7C9.59543 58.5 8.7 57.6046 8.7 56.5V18.5Z" fill="#eeeeee"/>
<path d="M104.325 16.5C103.22 16.5 102.325 17.3954 102.325 18.5V56.5C102.325 57.6046 103.22 58.5 104.325 58.5H110.825C111.93 58.5 112.825 57.6046 112.825 56.5V18.5C112.825 17.3954 111.93 16.5 110.825 16.5H104.325Z" fill="#eeeeee"/>
</g>
</svg>
