<svg width="110" height="101" viewBox="0 0 110 101" fill="none" xmlns="http://www.w3.org/2000/svg">
<g id="arm">
<path id="Line 19" d="M4.02573 53.4012L4.02573 10.1983" stroke="#DDDDDD" stroke-width="4" stroke-linecap="round"/>
<path id="Line 28" d="M93.5256 2.39974C97.0258 1.89974 101.526 7.39978 103.526 22.3997" stroke="#DDDDDD" stroke-width="4" stroke-linecap="round"/>
<path id="Line 25" d="M81.5257 86.3998C104.526 60.3998 98.5257 36.8998 103.526 22.3998" stroke="#DDDDDD" stroke-width="4" stroke-linecap="round"/>
<path id="Line 23" d="M43.5257 88.3998C7.52573 72.8998 7.52572 59.3998 4.02567 53.1969" stroke="#DDDDDD" stroke-width="4" stroke-linecap="round"/>
<path id="Line 24" d="M43.5257 88.3998C7.52573 72.8998 7.52572 59.3998 4.02567 53.1969" stroke="#DDDDDD" stroke-width="4" stroke-linecap="round"/>
<path id="Line 22" d="M63.5254 64.6024C75.8194 49.4544 87.0257 39.3998 93.5254 28.3995" stroke="#DDDDDD" stroke-width="4" stroke-linecap="round"/>
<path id="Line 21" d="M66.5257 60.3998C66.5257 60.3998 57.0257 38.3998 38.5257 35.3998" stroke="#DDDDDD" stroke-width="4" stroke-linecap="round"/>
<path id="Line 20" d="M4.02572 9.89981C33.0257 7.39975 31.5257 21.3998 40.0258 38.8997" stroke="#DDDDDD" stroke-width="4" stroke-linecap="round"/>
<path id="Line 26" d="M43.5257 88.3998C73.0257 102.4 66.5257 101.9 81.5258 86.3998" stroke="#DDDDDD" stroke-width="4" stroke-linecap="round"/>
<path id="Line 27" d="M93.4119 2.41291C63.7115 16.2594 96.5258 25.8997 96.5258 29.3998" stroke="#DDDDDD" stroke-width="4" stroke-linecap="round"/>
<path id="Line 29" d="M85.5258 21.3998C74.0258 24.8998 79.5258 14.8998 81.5258 16.3998" stroke="#DDDDDD" stroke-width="4" stroke-linecap="round"/>
<path id="Line 30" d="M83.5257 17.3998C83.5257 17.3998 87.0257 9.89978 92.5257 8.39975" stroke="#DDDDDD" stroke-width="4" stroke-linecap="round"/>
<path id="Line 31" d="M87.5258 20.3997C87.5258 20.3997 89.0258 14.8997 93.5258 13.3997" stroke="#DDDDDD" stroke-width="4" stroke-linecap="round"/>
<path id="Line 32" d="M91.5257 23.3998C91.5257 23.3998 93.0257 19.3998 95.5257 18.3998" stroke="#DDDDDD" stroke-width="4" stroke-linecap="round"/>
</g>
</svg>
